<?xml version="1.0" encoding="UTF-8" standalone="no"?>
<!DOCTYPE svg PUBLIC "-//W3C//DTD SVG 1.1//EN"
 "http://www.w3.org/Graphics/SVG/1.1/DTD/svg11.dtd">
<!-- Generated by graphviz version 2.50.0 (0)
 -->
<!-- Pages: 1 -->
<svg width="152pt" height="188pt"
 viewBox="0.00 0.00 151.89 188.00" xmlns="http://www.w3.org/2000/svg" xmlns:xlink="http://www.w3.org/1999/xlink">
<g id="graph0" class="graph" transform="scale(1 1) rotate(0) translate(4 184)">
<polygon fill="white" stroke="transparent" points="-4,4 -4,-184 147.89,-184 147.89,4 -4,4"/>
<!-- Genetic Factor -->
<g id="node1" class="node">
<title>Genetic Factor</title>
<ellipse fill="none" stroke="black" cx="79.55" cy="-162" rx="64.19" ry="18"/>
<text text-anchor="middle" x="79.55" y="-158.3" font-family="Times New Roman,serif" font-size="14.00">Genetic Factor</text>
</g>
<!-- Smoking -->
<g id="node2" class="node">
<title>Smoking</title>
<ellipse fill="none" stroke="black" cx="43.55" cy="-90" rx="43.59" ry="18"/>
<text text-anchor="middle" x="43.55" y="-86.3" font-family="Times New Roman,serif" font-size="14.00">Smoking</text>
</g>
<!-- Genetic Factor&#45;&gt;Smoking -->
<g id="edge1" class="edge">
<title>Genetic Factor&#45;&gt;Smoking</title>
<path fill="none" stroke="black" d="M70.83,-144.05C66.63,-135.89 61.5,-125.91 56.83,-116.82"/>
<polygon fill="black" stroke="black" points="59.87,-115.08 52.18,-107.79 53.64,-118.28 59.87,-115.08"/>
</g>
<!-- Lung Cancer -->
<g id="node3" class="node">
<title>Lung Cancer</title>
<ellipse fill="none" stroke="black" cx="79.55" cy="-18" rx="57.69" ry="18"/>
<text text-anchor="middle" x="79.55" y="-14.3" font-family="Times New Roman,serif" font-size="14.00">Lung Cancer</text>
</g>
<!-- Genetic Factor&#45;&gt;Lung Cancer -->
<g id="edge2" class="edge">
<title>Genetic Factor&#45;&gt;Lung Cancer</title>
<path fill="none" stroke="black" d="M86.61,-143.67C90.38,-133.47 94.63,-120.22 96.55,-108 99.02,-92.19 99.02,-87.81 96.55,-72 95.19,-63.31 92.65,-54.1 89.94,-45.84"/>
<polygon fill="black" stroke="black" points="93.22,-44.62 86.61,-36.33 86.61,-46.93 93.22,-44.62"/>
</g>
<!-- Smoking&#45;&gt;Lung Cancer -->
<g id="edge3" class="edge">
<title>Smoking&#45;&gt;Lung Cancer</title>
<path fill="none" stroke="black" d="M52.26,-72.05C56.4,-64.01 61.44,-54.2 66.06,-45.23"/>
<polygon fill="black" stroke="black" points="69.2,-46.77 70.66,-36.28 62.98,-43.57 69.2,-46.77"/>
</g>
</g>
</svg>