<svg xmlns="http://www.w3.org/2000/svg" xmlns:xlink="http://www.w3.org/1999/xlink" width="100.0" height="100.0" viewBox="-71.56906399099998 -16.43654386899996 0.058138895000013235 0.06494539499998808" preserveAspectRatio="xMinYMin meet"><g transform="matrix(1,0,0,-1,0,-32.80814234299993)"><path fill-rule="evenodd" fill="#66cc99" stroke="#555555" stroke-width="0.0012989078999997615" opacity="0.6" d="M -71.53197535599998,-16.38186960899992 L -71.53221210599992,-16.382616358999883 L -71.53270385599996,-16.3836727339999 L -71.53310460599988,-16.384965858999976 L -71.53330498099996,-16.38569448399994 L -71.5333959809999,-16.38624085899994 L -71.53337773099992,-16.38649585899998 L -71.53317748199999,-16.38671435899994 L -71.53266748099998,-16.386896608999848 L -71.53221210699985,-16.3869147339999 L -71.53183210599991,-16.386987483999974 L -71.53121948099994,-16.387108483999953 L -71.53079210699997,-16.38716548399998 L -71.5304073559999,-16.38723673399994 L -71.5300938559999,-16.387350733999938 L -71.52993010599994,-16.38746460899995 L -71.52980185599989,-16.3876357339999 L -71.52958098099992,-16.387984732999882 L -71.5294099809999,-16.38814860899987 L -71.52916060599995,-16.388340983999967 L -71.52901535699993,-16.388439733999974 L -71.52896110599988,-16.388528858999962 L -71.52891848099989,-16.388568983999846 L -71.52875598099996,-16.388893733999964 L -71.5287403559999,-16.3889251089999 L -71.52857648099996,-16.389238608999904 L -71.52860498099989,-16.389445233999936 L -71.52874748099998,-16.389758608999955 L -71.52876910599997,-16.38986373399996 L -71.5288044809999,-16.390036608999935 L -71.52876885599994,-16.390264483999886 L -71.52861210599997,-16.390485358999968 L -71.52858785599989,-16.39054648399997 L -71.52855148099991,-16.390679733999946 L -71.52851335599996,-16.390854108999974 L -71.52847685599994,-16.39094773399995 L -71.52836423099995,-16.39100173399987 L -71.52818648199991,-16.391025483999954 L -71.52802010599999,-16.390996982999923 L -71.52794385599992,-16.390981108999938 L -71.52790423099992,-16.391020733999937 L -71.52779485599996,-16.391266608999956 L -71.52769685599998,-16.391444358999877 L -71.52748910599996,-16.391973608999876 L -71.52745335599991,-16.392988233999915 L -71.52748598099987,-16.3930676089999 L -71.52754160599994,-16.393141733999983 L -71.52758560599995,-16.393188233999922 L -71.52800035599995,-16.39320560899995 L -71.52877273099995,-16.393277983999894 L -71.52881973099983,-16.39331348399992 L -71.52882010599996,-16.39335885899993 L -71.52876985599994,-16.39343560899988 L -71.5286424809999,-16.393572608999932 L -71.52815760699991,-16.394083733999878 L -71.52716148099995,-16.39517160899993 L -71.52737110599998,-16.39538135899994 L -71.52662410599999,-16.39612835899993 L -71.52568023099985,-16.396823108999968 L -71.52454760599994,-16.39753485899996 L -71.52347748099993,-16.398306983999817 L -71.52249835599991,-16.398825483999815 L -71.52185035599996,-16.399199858999964 L -71.51971923099995,-16.400596858999904 L -71.51658398099994,-16.402753858999972 L -71.51650810599989,-16.402929483999912 L -71.51582423099995,-16.40469623399997 L -71.5134264809999,-16.410186983999893 L -71.51333048099997,-16.41039273399997 L -71.51343535599995,-16.41039273399997 L -71.51362610599989,-16.410394608999923 L -71.51435848099993,-16.410287858999823 L -71.51501460699996,-16.41001698399998 L -71.51553348099998,-16.41002848399995 L -71.51597598099994,-16.410146733999966 L -71.51684573099993,-16.41005323399986 L -71.51786035599997,-16.410350858999948 L -71.51935573099996,-16.410661733999916 L -71.52057648099998,-16.410724608999885 L -71.52113348099988,-16.41081423399993 L -71.52175135599992,-16.410972608999884 L -71.52278135599988,-16.411357858999963 L -71.52332310599996,-16.411497108999868 L -71.52475735599995,-16.41207310899989 L -71.52570348099982,-16.412612858999978 L -71.52610010599994,-16.41274835899992 L -71.52879335599994,-16.414291358999947 L -71.52970123099993,-16.41490935899992 L -71.5312652309999,-16.415872608999962 L -71.53179173199999,-16.41615485899996 L -71.53264623099989,-16.416456233999952 L -71.53369898099993,-16.41690248399982 L -71.5350648569999,-16.417615858999966 L -71.53667448099992,-16.41872023399992 L -71.53742223099988,-16.41909785899992 L -71.53903960599996,-16.420062983999912 L -71.53974148099996,-16.420295858999907 L -71.54094698099993,-16.420873608999955 L -71.54152685599996,-16.421148358999915 L -71.54230498099997,-16.421440108999832 L -71.54312898099994,-16.42183685899988 L -71.54453435599993,-16.42223710899998 L -71.54576110599993,-16.422586483999908 L -71.54891973099996,-16.424306858999955 L -71.54961398099994,-16.424755108999932 L -71.5502319819999,-16.425298733999966 L -71.55091098099996,-16.42614548399996 L -71.55165873099992,-16.426902608999967 L -71.55196385599993,-16.427316608999945 L -71.55246735599997,-16.427741983999965 L -71.55302423099994,-16.428071983999928 L -71.55484773199998,-16.42805860899989 L -71.55529785599992,-16.428399983999952 L -71.55536448099997,-16.42844998399994 L -71.55586273099988,-16.42880635899985 L -71.55689435599999,-16.429327483999884 L -71.55843660599993,-16.430254983999873 L -71.55877023099993,-16.43033823399992 L -71.55925998099985,-16.43012985899992 L -71.55985410599999,-16.429942233999952 L -71.56025010599996,-16.429900608999958 L -71.5604584809999,-16.430025608999927 L -71.56103160599997,-16.430650983999953 L -71.56186535599994,-16.431734733999917 L -71.56275123099988,-16.432766483999956 L -71.56290748099991,-16.43287073399995 L -71.56303260699997,-16.43287073399995 L -71.56377248099983,-16.432589358999962 L -71.56390785599984,-16.432453858999907 L -71.56417885599996,-16.432214108999972 L -71.56447073199996,-16.432078608999973 L -71.56460623099997,-16.432193233999953 L -71.56493960599994,-16.43281860899998 L -71.56541898099988,-16.43340210899987 L -71.56665860599998,-16.43413848399996 L -71.56665798099993,-16.434137358999976 L -71.56595610599993,-16.43321035899993 L -71.56581873099992,-16.432907108999927 L -71.56513210599996,-16.43187698399987 L -71.56470485599988,-16.430713608999895 L -71.56415560599999,-16.429510108999978 L -71.5640106059999,-16.42919348399988 L -71.56351485699992,-16.42864610899983 L -71.56217198099984,-16.427411982999956 L -71.56066135599997,-16.425735483999972 L -71.56025698099984,-16.425125108999907 L -71.55982973099992,-16.42461398399996 L -71.5586853559999,-16.423444733999872 L -71.55838773099998,-16.423297858999888 L -71.55719760599999,-16.422153483999978 L -71.55706023099992,-16.42206185899994 L -71.5568999809999,-16.421962733999976 L -71.55667873099998,-16.42175098399997 L -71.55458073099993,-16.419300233999877 L -71.55394748099997,-16.41842823399992 L -71.55249785599989,-16.416843358999813 L -71.55230710599994,-16.41671185899986 L -71.55170435599996,-16.416122483999857 L -71.55155185599995,-16.415853483999967 L -71.55299373199989,-16.414518358999885 L -71.55360385599994,-16.413981608999904 L -71.55422785599995,-16.41337598399997 L -71.55441135599995,-16.413100608999912 L -71.55409948099998,-16.41231148399993 L -71.5535303559999,-16.41098998399991 L -71.55301635599989,-16.409631858999887 L -71.55288798099986,-16.409026233999953 L -71.55259435599999,-16.408255358999952 L -71.55227185699994,-16.407517483999925 L -71.55205348099997,-16.407142483999962 L -71.55195798099999,-16.406881858999895 L -71.55176523099993,-16.406395358999873 L -71.55195360599998,-16.405589608999946 L -71.55213010599994,-16.404805233999866 L -71.55216523099983,-16.40464848299996 L -71.55224160599994,-16.40431310899993 L -71.55240635599995,-16.403707233999967 L -71.55240048099995,-16.403513233999888 L -71.55218273199995,-16.403371983999932 L -71.55191223099996,-16.403301358999954 L -71.55175348199987,-16.403130858999873 L -71.55150635599995,-16.402760358999956 L -71.55103585599988,-16.401730983999983 L -71.55086048099997,-16.401398608999898 L -71.55064173099998,-16.40098385899995 L -71.55011673099989,-16.400120983999955 L -71.54954173199991,-16.399454608999974 L -71.54880660599991,-16.398595858999897 L -71.54815360599997,-16.39788998399996 L -71.54775360599996,-16.39734885899992 L -71.54763598099998,-16.397031108999954 L -71.54762423099999,-16.396825358999877 L -71.54768310599997,-16.396589983999945 L -71.54767135599997,-16.396478233999915 L -71.54760073099999,-16.39638410899994 L -71.54738310699992,-16.39629598399995 L -71.54716548199997,-16.396095983999942 L -71.54708898099994,-16.39594885899993 L -71.54704198099995,-16.395831233999957 L -71.54693610599998,-16.395813483999916 L -71.54668898099987,-16.395931233999875 L -71.54643610599999,-16.396048858999848 L -71.54628898099998,-16.396101858999884 L -71.54616548099989,-16.396066608999888 L -71.54605373099997,-16.395813483999916 L -71.54595373099994,-16.39562535799996 L -71.54587723099996,-16.395590108999897 L -71.54564785599996,-16.395713608999927 L -71.5451949809999,-16.395954733999872 L -71.54508910699991,-16.39599598399991 L -71.54503023099994,-16.395919483999876 L -71.54477148099994,-16.39530773399997 L -71.54418323099992,-16.393754858999955 L -71.5440596059999,-16.393460733999916 L -71.54393035599998,-16.393407857999932 L -71.54363035599994,-16.393443108999975 L -71.54319523099997,-16.393466608999972 L -71.54275973199992,-16.393466608999972 L -71.54247748099993,-16.393472483999915 L -71.54233035599992,-16.39346660799987 L -71.54219510599984,-16.393384358999924 L -71.54212448099986,-16.39327848399995 L -71.54206573099998,-16.393196108999973 L -71.54199510599989,-16.393166607999945 L -71.54183048099998,-16.393201983999916 L -71.54147748099996,-16.393343108999886 L -71.54137748099987,-16.393313732999957 L -71.5412481059999,-16.393113733999826 L -71.5409774819999,-16.392625483999836 L -71.54074810699984,-16.39231373399997 L -71.54060110599994,-16.392231358999823 L -71.54046573099993,-16.39219610899994 L -71.53986585599995,-16.392413733999888 L -71.53981873099997,-16.39237848399989 L -71.53971885599992,-16.39207260899991 L -71.53868348099996,-16.38903748399997 L -71.53843060599985,-16.388284608999925 L -71.53828948099988,-16.388037483999938 L -71.53785998099988,-16.386755233999963 L -71.5375188559999,-16.38577285899993 L -71.5372483569999,-16.384925858999964 L -71.53688360599983,-16.38384948399988 L -71.5368307309999,-16.383396608999874 L -71.53666598099994,-16.382949483999937 L -71.53659535599996,-16.382837733999907 L -71.53646010599988,-16.382825983999908 L -71.5361953559999,-16.382867233999946 L -71.5359248559999,-16.38287310899983 L -71.53580723099992,-16.382790608999926 L -71.53570735599993,-16.382414233999953 L -71.53554835599994,-16.38200835899994 L -71.5354483559999,-16.381943733999947 L -71.53524835599995,-16.38193785899989 L -71.53520623199995,-16.38193948399993 L -71.53496023099996,-16.38194960899989 L -71.53484248099988,-16.381943733999947 L -71.53474923099998,-16.381729733999975 L -71.53457473199995,-16.38018898399997 L -71.53436160599995,-16.379258733999905 L -71.53415810599984,-16.378434982999977 L -71.53388673199993,-16.37794085899992 L -71.53362498099995,-16.377475608999816 L -71.53345435599994,-16.37682048399995 L -71.5331004819999,-16.374871983999867 L -71.53272073099998,-16.37400385899997 L -71.53231048099997,-16.37428910899996 L -71.53171748099993,-16.37458973399987 L -71.53114448099996,-16.37489260899997 L -71.53074348099994,-16.37526610899988 L -71.53067898099994,-16.375327608999896 L -71.53048048099993,-16.37551710899993 L -71.53012185599994,-16.3759233589999 L -71.53008610599989,-16.376066858999877 L -71.53022948099994,-16.376210358999913 L -71.53060010599995,-16.376270108999904 L -71.53119923099996,-16.37659573399992 L -71.53158398099993,-16.377089858999966 L -71.5317749809999,-16.378281483999956 L -71.53179323099994,-16.379811358999973 L -71.53179323099994,-16.380813108999916 L -71.53197535599998,-16.38186960899992 z" /></g></svg>