<?xml version="1.0" encoding="UTF-8" standalone="no"?>
<!DOCTYPE svg PUBLIC "-//W3C//DTD SVG 1.1//EN"
 "http://www.w3.org/Graphics/SVG/1.1/DTD/svg11.dtd">
<!-- Generated by graphviz version 2.50.0 (0)
 -->
<!-- Pages: 1 -->
<svg width="122pt" height="188pt"
 viewBox="0.00 0.00 122.49 188.00" xmlns="http://www.w3.org/2000/svg" xmlns:xlink="http://www.w3.org/1999/xlink">
<g id="graph0" class="graph" transform="scale(1 1) rotate(0) translate(4 184)">
<polygon fill="white" stroke="transparent" points="-4,4 -4,-184 118.49,-184 118.49,4 -4,4"/>
<!-- Educ -->
<g id="node1" class="node">
<title>Educ</title>
<ellipse fill="none" stroke="black" cx="53.95" cy="-162" rx="28.7" ry="18"/>
<text text-anchor="middle" x="53.95" y="-158.3" font-family="Times New Roman,serif" font-size="14.00">Educ</text>
</g>
<!-- Investments -->
<g id="node2" class="node">
<title>Investments</title>
<ellipse fill="none" stroke="black" cx="53.95" cy="-18" rx="53.89" ry="18"/>
<text text-anchor="middle" x="53.95" y="-14.3" font-family="Times New Roman,serif" font-size="14.00">Investments</text>
</g>
<!-- Educ&#45;&gt;Investments -->
<g id="edge1" class="edge">
<title>Educ&#45;&gt;Investments</title>
<path fill="none" stroke="black" d="M49.89,-143.93C47.64,-133.6 45.08,-120.12 43.95,-108 42.46,-92.07 42.46,-87.93 43.95,-72 44.74,-63.48 46.24,-54.28 47.85,-45.99"/>
<polygon fill="black" stroke="black" points="51.3,-46.57 49.89,-36.07 44.44,-45.16 51.3,-46.57"/>
</g>
<!-- Wage -->
<g id="node3" class="node">
<title>Wage</title>
<ellipse fill="none" stroke="black" cx="83.95" cy="-90" rx="30.59" ry="18"/>
<text text-anchor="middle" x="83.95" y="-86.3" font-family="Times New Roman,serif" font-size="14.00">Wage</text>
</g>
<!-- Educ&#45;&gt;Wage -->
<g id="edge2" class="edge">
<title>Educ&#45;&gt;Wage</title>
<path fill="none" stroke="black" d="M61.05,-144.41C64.52,-136.34 68.76,-126.43 72.65,-117.35"/>
<polygon fill="black" stroke="black" points="75.96,-118.53 76.68,-107.96 69.52,-115.77 75.96,-118.53"/>
</g>
<!-- Wage&#45;&gt;Investments -->
<g id="edge3" class="edge">
<title>Wage&#45;&gt;Investments</title>
<path fill="none" stroke="black" d="M76.84,-72.41C73.37,-64.34 69.13,-54.43 65.24,-45.35"/>
<polygon fill="black" stroke="black" points="68.37,-43.77 61.21,-35.96 61.93,-46.53 68.37,-43.77"/>
</g>
</g>
</svg>