<?xml version="1.0" encoding="UTF-8" standalone="no"?>
<!DOCTYPE svg PUBLIC "-//W3C//DTD SVG 1.1//EN"
 "http://www.w3.org/Graphics/SVG/1.1/DTD/svg11.dtd">
<!-- Generated by graphviz version 2.50.0 (0)
 -->
<!-- Pages: 1 -->
<svg width="149pt" height="188pt"
 viewBox="0.00 0.00 148.94 188.00" xmlns="http://www.w3.org/2000/svg" xmlns:xlink="http://www.w3.org/1999/xlink">
<g id="graph0" class="graph" transform="scale(1 1) rotate(0) translate(4 184)">
<polygon fill="white" stroke="transparent" points="-4,4 -4,-184 144.94,-184 144.94,4 -4,4"/>
<!-- Genetic Factor -->
<g id="node1" class="node">
<title>Genetic Factor</title>
<ellipse fill="none" stroke="black" cx="77.9" cy="-162" rx="63.09" ry="18"/>
<text text-anchor="middle" x="77.9" y="-158.3" font-family="Times New Roman,serif" font-size="14.00">Genetic Factor</text>
</g>
<!-- Smoking -->
<g id="node2" class="node">
<title>Smoking</title>
<ellipse fill="none" stroke="black" cx="42.9" cy="-90" rx="42.79" ry="18"/>
<text text-anchor="middle" x="42.9" y="-86.3" font-family="Times New Roman,serif" font-size="14.00">Smoking</text>
</g>
<!-- Genetic Factor&#45;&gt;Smoking -->
<g id="edge1" class="edge">
<title>Genetic Factor&#45;&gt;Smoking</title>
<path fill="none" stroke="black" d="M69.42,-144.05C65.34,-135.89 60.35,-125.91 55.81,-116.82"/>
<polygon fill="black" stroke="black" points="58.89,-115.17 51.29,-107.79 52.63,-118.3 58.89,-115.17"/>
</g>
<!-- Lung Cancer -->
<g id="node3" class="node">
<title>Lung Cancer</title>
<ellipse fill="none" stroke="black" cx="77.9" cy="-18" rx="56.59" ry="18"/>
<text text-anchor="middle" x="77.9" y="-14.3" font-family="Times New Roman,serif" font-size="14.00">Lung Cancer</text>
</g>
<!-- Genetic Factor&#45;&gt;Lung Cancer -->
<g id="edge2" class="edge">
<title>Genetic Factor&#45;&gt;Lung Cancer</title>
<path fill="none" stroke="black" d="M84.96,-143.67C88.73,-133.47 92.98,-120.22 94.9,-108 97.37,-92.19 97.37,-87.81 94.9,-72 93.54,-63.31 91,-54.1 88.29,-45.84"/>
<polygon fill="black" stroke="black" points="91.57,-44.62 84.96,-36.33 84.96,-46.93 91.57,-44.62"/>
</g>
<!-- Smoking&#45;&gt;Lung Cancer -->
<g id="edge3" class="edge">
<title>Smoking&#45;&gt;Lung Cancer</title>
<path fill="none" stroke="black" d="M51.37,-72.05C55.39,-64.01 60.29,-54.2 64.78,-45.23"/>
<polygon fill="black" stroke="black" points="67.92,-46.78 69.26,-36.28 61.66,-43.65 67.92,-46.78"/>
</g>
</g>
</svg>