<?xml version="1.0" encoding="UTF-8" standalone="no"?>
<!DOCTYPE svg PUBLIC "-//W3C//DTD SVG 1.1//EN"
 "http://www.w3.org/Graphics/SVG/1.1/DTD/svg11.dtd">
<!-- Generated by graphviz version 2.50.0 (0)
 -->
<!-- Pages: 1 -->
<svg width="124pt" height="188pt"
 viewBox="0.00 0.00 123.79 188.00" xmlns="http://www.w3.org/2000/svg" xmlns:xlink="http://www.w3.org/1999/xlink">
<g id="graph0" class="graph" transform="scale(1 1) rotate(0) translate(4 184)">
<polygon fill="white" stroke="transparent" points="-4,4 -4,-184 119.79,-184 119.79,4 -4,4"/>
<!-- Educ -->
<g id="node1" class="node">
<title>Educ</title>
<ellipse fill="none" stroke="black" cx="54.6" cy="-162" rx="29.5" ry="18"/>
<text text-anchor="middle" x="54.6" y="-158.3" font-family="Times New Roman,serif" font-size="14.00">Educ</text>
</g>
<!-- Investments -->
<g id="node2" class="node">
<title>Investments</title>
<ellipse fill="none" stroke="black" cx="54.6" cy="-18" rx="54.69" ry="18"/>
<text text-anchor="middle" x="54.6" y="-14.3" font-family="Times New Roman,serif" font-size="14.00">Investments</text>
</g>
<!-- Educ&#45;&gt;Investments -->
<g id="edge1" class="edge">
<title>Educ&#45;&gt;Investments</title>
<path fill="none" stroke="black" d="M50.54,-143.93C48.29,-133.6 45.73,-120.12 44.6,-108 43.11,-92.07 43.11,-87.93 44.6,-72 45.39,-63.48 46.89,-54.28 48.5,-45.99"/>
<polygon fill="black" stroke="black" points="51.95,-46.57 50.54,-36.07 45.09,-45.16 51.95,-46.57"/>
</g>
<!-- Wage -->
<g id="node3" class="node">
<title>Wage</title>
<ellipse fill="none" stroke="black" cx="84.6" cy="-90" rx="31.4" ry="18"/>
<text text-anchor="middle" x="84.6" y="-86.3" font-family="Times New Roman,serif" font-size="14.00">Wage</text>
</g>
<!-- Educ&#45;&gt;Wage -->
<g id="edge2" class="edge">
<title>Educ&#45;&gt;Wage</title>
<path fill="none" stroke="black" d="M61.7,-144.41C65.17,-136.34 69.41,-126.43 73.3,-117.35"/>
<polygon fill="black" stroke="black" points="76.61,-118.53 77.33,-107.96 70.17,-115.77 76.61,-118.53"/>
</g>
<!-- Wage&#45;&gt;Investments -->
<g id="edge3" class="edge">
<title>Wage&#45;&gt;Investments</title>
<path fill="none" stroke="black" d="M77.49,-72.41C74.02,-64.34 69.78,-54.43 65.89,-45.35"/>
<polygon fill="black" stroke="black" points="69.02,-43.77 61.86,-35.96 62.58,-46.53 69.02,-43.77"/>
</g>
</g>
</svg>